<svg width="20" height="20" viewBox="0 0 20 20" fill="none" xmlns="http://www.w3.org/2000/svg">
<path fill-rule="evenodd" clip-rule="evenodd" d="M10.72 0.0299461C4.63001 -0.400054 -0.399993 4.62995 0.0300071 10.7199C0.390007 16.0099 5.01001 19.9999 10.31 19.9999H14C14.55 19.9999 15 19.5499 15 18.9999C15 18.4499 14.55 17.9999 14 17.9999H10.33C6.60001 17.9999 3.18001 15.5799 2.25001 11.9699C0.760007 6.16995 6.16001 0.759946 11.96 2.25995C15.58 3.17995 18 6.59995 18 10.3299V11.4299C18 12.2199 17.29 12.9999 16.5 12.9999C15.71 12.9999 15 12.2199 15 11.4299V10.1799C15 7.66995 13.22 5.40995 10.74 5.05995C7.34001 4.56995 4.47001 7.50995 5.08001 10.9299C5.42001 12.8399 6.91001 14.4199 8.80001 14.8699C10.64 15.2999 12.39 14.7099 13.54 13.5399C14.43 14.7599 16.21 15.3999 17.84 14.7499C19.18 14.2199 20 12.8499 20 11.4099V10.3199C20 5.00995 16.01 0.389946 10.72 0.0299461ZM10 12.9999C8.34001 12.9999 7.00001 11.6599 7.00001 9.99995C7.00001 8.33995 8.34001 6.99995 10 6.99995C11.66 6.99995 13 8.33995 13 9.99995C13 11.6599 11.66 12.9999 10 12.9999Z" fill="#969696"/>
</svg>
