<svg width="18" height="14" viewBox="0 0 18 14" fill="none" xmlns="http://www.w3.org/2000/svg">
<path fill-rule="evenodd" clip-rule="evenodd" d="M15.6666 0.333252H2.33329C1.40829 0.333252 0.674959 1.07492 0.674959 1.99992L0.666626 11.9999C0.666626 12.9249 1.40829 13.6666 2.33329 13.6666H15.6666C16.5916 13.6666 17.3333 12.9249 17.3333 11.9999V1.99992C17.3333 1.07492 16.5916 0.333252 15.6666 0.333252ZM14.8333 11.9999H3.16663C2.70829 11.9999 2.33329 11.6249 2.33329 11.1666V6.99992H15.6666V11.1666C15.6666 11.6249 15.2916 11.9999 14.8333 11.9999ZM15.6666 3.66659H2.33329V2.83325C2.33329 2.37492 2.70829 1.99992 3.16663 1.99992H14.8333C15.2916 1.99992 15.6666 2.37492 15.6666 2.83325V3.66659Z" fill="#0085FF"/>
</svg>
