<svg width="18" height="18" viewBox="0 0 18 18" fill="none" xmlns="http://www.w3.org/2000/svg">
<path fill-rule="evenodd" clip-rule="evenodd" d="M9.00008 0.666748C4.40008 0.666748 0.666748 4.40008 0.666748 9.00008C0.666748 13.6001 4.40008 17.3334 9.00008 17.3334C13.6001 17.3334 17.3334 13.6001 17.3334 9.00008C17.3334 4.40008 13.6001 0.666748 9.00008 0.666748ZM6.74175 12.5751L3.75008 9.58342C3.42508 9.25842 3.42508 8.73342 3.75008 8.40842C4.07508 8.08342 4.60008 8.08342 4.92508 8.40842L7.33342 10.8084L13.0667 5.07508C13.3917 4.75008 13.9167 4.75008 14.2417 5.07508C14.5667 5.40008 14.5667 5.92508 14.2417 6.25008L7.91675 12.5751C7.60008 12.9001 7.06675 12.9001 6.74175 12.5751Z" fill="#969696"/>
</svg>
