<svg width="18" height="18" viewBox="0 0 18 18" fill="none" xmlns="http://www.w3.org/2000/svg">
<path fill-rule="evenodd" clip-rule="evenodd" d="M8.99996 0.666748C4.39996 0.666748 0.666626 4.40008 0.666626 9.00008C0.666626 13.6001 4.39996 17.3334 8.99996 17.3334C13.6 17.3334 17.3333 13.6001 17.3333 9.00008C17.3333 4.40008 13.6 0.666748 8.99996 0.666748ZM12.0083 5.95008C12.9 5.95008 13.6166 6.66674 13.6166 7.55841C13.6166 8.45008 12.9 9.16674 12.0083 9.16674C11.1166 9.16674 10.4 8.45008 10.4 7.55841C10.3916 6.66674 11.1166 5.95008 12.0083 5.95008ZM7.00829 4.63341C8.09163 4.63341 8.97496 5.51675 8.97496 6.60008C8.97496 7.68341 8.09163 8.56675 7.00829 8.56675C5.92496 8.56675 5.04163 7.68341 5.04163 6.60008C5.04163 5.50841 5.91663 4.63341 7.00829 4.63341ZM7.0083 12.2417V15.3667C5.0083 14.7417 3.42496 13.2001 2.72496 11.2334C3.59996 10.3001 5.7833 9.82508 7.0083 9.82508C7.44996 9.82508 8.0083 9.89175 8.59163 10.0084C7.22496 10.7334 7.0083 11.6917 7.0083 12.2417ZM8.99996 15.6667C8.77496 15.6667 8.55829 15.6584 8.34162 15.6334V12.2417C8.34162 11.0584 10.7916 10.4667 12.0083 10.4667C12.9 10.4667 14.4416 10.7917 15.2083 11.4251C14.2333 13.9001 11.825 15.6667 8.99996 15.6667Z" fill="#0085FF"/>
</svg>
