<svg width="12" height="14" viewBox="0 0 12 14" fill="none" xmlns="http://www.w3.org/2000/svg">
<path d="M0.857178 3.57136H2.00003M2.00003 3.57136H11.1429M2.00003 3.57136V11.5714C2.00003 11.8745 2.12044 12.1652 2.33477 12.3795C2.5491 12.5938 2.83979 12.7142 3.14289 12.7142H8.85718C9.16028 12.7142 9.45097 12.5938 9.6653 12.3795C9.87963 12.1652 10 11.8745 10 11.5714V3.57136H2.00003ZM3.71432 3.57136V2.4285C3.71432 2.1254 3.83473 1.83471 4.04906 1.62038C4.26338 1.40605 4.55407 1.28564 4.85718 1.28564H7.14289C7.446 1.28564 7.73669 1.40605 7.95101 1.62038C8.16534 1.83471 8.28575 2.1254 8.28575 2.4285V3.57136M4.85718 6.4285V9.85707M7.14289 6.4285V9.85707" stroke="white" stroke-linecap="round" stroke-linejoin="round"/>
</svg>
