<svg width="12" height="12" viewBox="0 0 12 12" fill="none" xmlns="http://www.w3.org/2000/svg">
                <path fill-rule="evenodd" clip-rule="evenodd" d="M7.5 4.5L7.97 3.465L9 3L7.97 2.535L7.5 1.5L7.04 2.535L6 3L7.04 3.465L7.5 4.5ZM10.5 4C9.775 4 9.37 4.72 9.535 5.255L7.76 7.035C7.61 6.99 7.39 6.99 7.24 7.035L5.965 5.76C6.135 5.225 5.73 4.5 5 4.5C4.275 4.5 3.865 5.22 4.035 5.76L1.755 8.035C1.22 7.87 0.5 8.275 0.5 9C0.5 9.55 0.95 10 1.5 10C2.225 10 2.63 9.28 2.465 8.745L4.74 6.465C4.89 6.51 5.11 6.51 5.26 6.465L6.535 7.74C6.365 8.275 6.77 9 7.5 9C8.225 9 8.635 8.28 8.465 7.74L10.245 5.965C10.78 6.13 11.5 5.725 11.5 5C11.5 4.45 11.05 4 10.5 4ZM2 4.5L1.75 5.5L1.5 4.5L0.5 4.25L1.5 4L1.75 3L2 4L3 4.25L2 4.5Z" fill="#00BA34" />
            </svg>