<svg width="17" height="16" viewBox="0 0 17 16" fill="none" xmlns="http://www.w3.org/2000/svg">
<path fill-rule="evenodd" clip-rule="evenodd" d="M15.6667 8.83333H1.50002C1.04169 8.83333 0.666687 9.20833 0.666687 9.66667V14.6667C0.666687 15.125 1.04169 15.5 1.50002 15.5H15.6667C16.125 15.5 16.5 15.125 16.5 14.6667V9.66667C16.5 9.20833 16.125 8.83333 15.6667 8.83333ZM15.6667 0.5H1.50002C1.04169 0.5 0.666687 0.875 0.666687 1.33333V6.33333C0.666687 6.79167 1.04169 7.16667 1.50002 7.16667H15.6667C16.125 7.16667 16.5 6.79167 16.5 6.33333V1.33333C16.5 0.875 16.125 0.5 15.6667 0.5Z" fill="#0085FF"/>
</svg>
