<svg width="20" height="20" viewBox="0 0 20 20" fill="none" xmlns="http://www.w3.org/2000/svg">
                <path fill-rule="evenodd" clip-rule="evenodd" d="M16.6666 2.49992H15.8333V1.66659C15.8333 1.20825 15.4583 0.833252 15 0.833252C14.5416 0.833252 14.1666 1.20825 14.1666 1.66659V2.49992H5.83329V1.66659C5.83329 1.20825 5.45829 0.833252 4.99996 0.833252C4.54163 0.833252 4.16663 1.20825 4.16663 1.66659V2.49992H3.33329C2.41663 2.49992 1.66663 3.24992 1.66663 4.16658V17.4999C1.66663 18.4166 2.41663 19.1666 3.33329 19.1666H16.6666C17.5833 19.1666 18.3333 18.4166 18.3333 17.4999V4.16658C18.3333 3.24992 17.5833 2.49992 16.6666 2.49992ZM15.8333 17.4999H4.16663C3.70829 17.4999 3.33329 17.1249 3.33329 16.6666V6.66659H16.6666V16.6666C16.6666 17.1249 16.2916 17.4999 15.8333 17.4999Z" fill="#969696" />
            </svg>