<svg width="12" height="12" viewBox="0 0 12 12" fill="none" xmlns="http://www.w3.org/2000/svg">
                <path fill-rule="evenodd" clip-rule="evenodd" d="M7 2C7 2.55228 6.55228 3 6 3C5.44772 3 5 2.55228 5 2C5 1.44772 5.44772 1 6 1C6.55228 1 7 1.44772 7 2ZM5.025 4.29505L3.015 2.27505H3.01L2.855 2.11505L2.145 2.82005L4.155 4.84505L4.16 4.84005L4.315 5.00005L5.025 4.29505ZM6.9715 4.30855L9.174 2.11255L9.88 2.82005L7.6775 5.01655L6.9715 4.30855ZM5.005 7.68005L4.295 6.97505L2.28 8.98005L2.12 9.14505L2.825 9.85005L4.84 7.84005L5.005 7.68005ZM9.88 9.15005L7.885 7.14505L7.705 6.97005L7 7.67505L8.995 9.68005L9.17 9.85505L9.88 9.15005ZM2 7C2.55228 7 3 6.55228 3 6C3 5.44772 2.55228 5 2 5C1.44772 5 1 5.44772 1 6C1 6.55228 1.44772 7 2 7ZM10 7C10.5523 7 11 6.55228 11 6C11 5.44772 10.5523 5 10 5C9.44771 5 9 5.44772 9 6C9 6.55228 9.44771 7 10 7ZM7 10C7 10.5523 6.55228 11 6 11C5.44772 11 5 10.5523 5 10C5 9.44771 5.44772 9 6 9C6.55228 9 7 9.44771 7 10Z" fill="#0085FF" />
            </svg>