<svg width="28" height="24" viewBox="0 0 28 24" fill="none" xmlns="http://www.w3.org/2000/svg">
<path fill-rule="evenodd" clip-rule="evenodd" d="M12 22C13.1 22 14 21.1 14 20H9.99999C9.99999 21.1 10.89 22 12 22ZM18 16V11C18 7.93 16.36 5.36 13.5 4.68V4C13.5 3.17 12.83 2.5 12 2.5C11.17 2.5 10.5 3.17 10.5 4V4.68C7.62999 5.36 5.99999 7.92 5.99999 11V16L4.70999 17.29C4.07999 17.92 4.51999 19 5.40999 19H18.58C19.47 19 19.92 17.92 19.29 17.29L18 16Z" fill="#969696"/>
<rect x="13" width="15" height="16" rx="7.5" fill="#E92C2C"/>
<path d="M18.0408 12H23.0266V10.8991H19.859V10.8494L21.1126 9.57457C22.5259 8.21804 22.9165 7.55753 22.9165 6.73722C22.9165 5.51918 21.9258 4.62784 20.4627 4.62784C19.021 4.62784 17.9982 5.52273 17.9982 6.90412H19.2518C19.2518 6.16193 19.7205 5.69673 20.445 5.69673C21.1374 5.69673 21.6523 6.11932 21.6523 6.80469C21.6523 7.41193 21.283 7.84517 20.5657 8.57315L18.0408 11.0483V12Z" fill="white"/>
</svg>
