<svg width="10" height="10" viewBox="0 0 10 10" fill="none" xmlns="http://www.w3.org/2000/svg">
                <path fill-rule="evenodd" clip-rule="evenodd" d="M4 7V3C4 2.45 4.445 2 5 2H9.5V1.5C9.5 0.95 9.05 0.5 8.5 0.5H1.5C0.945 0.5 0.5 0.95 0.5 1.5V8.5C0.5 9.05 0.945 9.5 1.5 9.5H8.5C9.05 9.5 9.5 9.05 9.5 8.5V8H5C4.445 8 4 7.55 4 7ZM5.5 3C5.225 3 5 3.225 5 3.5V6.5C5 6.775 5.225 7 5.5 7H10V3H5.5ZM7 5.75C6.585 5.75 6.25 5.415 6.25 5C6.25 4.585 6.585 4.25 7 4.25C7.415 4.25 7.75 4.585 7.75 5C7.75 5.415 7.415 5.75 7 5.75Z" fill="#F98600" />
            </svg>