<svg width="48" height="48" viewBox="0 0 48 48" fill="none" xmlns="http://www.w3.org/2000/svg">
<rect x="0.5" y="0.5" width="47" height="47" rx="7.5" fill="white" stroke="#E8E8E8"/>
<path fill-rule="evenodd" clip-rule="evenodd" d="M17.1428 25.1428C16.5142 25.1428 15.9999 25.6571 15.9999 26.2857C15.9999 26.9143 16.5142 27.4285 17.1428 27.4285C17.7714 27.4285 18.2857 26.9143 18.2857 26.2857C18.2857 25.6571 17.7714 25.1428 17.1428 25.1428ZM17.1428 29.7143C16.5142 29.7143 15.9999 30.2285 15.9999 30.8571C15.9999 31.4857 16.5142 32 17.1428 32C17.7714 32 18.2857 31.4857 18.2857 30.8571C18.2857 30.2285 17.7714 29.7143 17.1428 29.7143ZM17.1428 20.5714C16.5142 20.5714 15.9999 21.0857 15.9999 21.7142C15.9999 22.3428 16.5142 22.8571 17.1428 22.8571C17.7714 22.8571 18.2857 22.3428 18.2857 21.7142C18.2857 21.0857 17.7714 20.5714 17.1428 20.5714ZM13.7143 21.1428C13.3943 21.1428 13.1428 21.3943 13.1428 21.7143C13.1428 22.0343 13.3943 22.2857 13.7143 22.2857C14.0343 22.2857 14.2857 22.0343 14.2857 21.7143C14.2857 21.3943 14.0343 21.1428 13.7143 21.1428ZM17.1428 16C16.5142 16 15.9999 16.5143 15.9999 17.1428C15.9999 17.7714 16.5142 18.2857 17.1428 18.2857C17.7714 18.2857 18.2857 17.7714 18.2857 17.1428C18.2857 16.5143 17.7714 16 17.1428 16ZM34.2857 22.2857C34.6057 22.2857 34.8571 22.0343 34.8571 21.7143C34.8571 21.3943 34.6057 21.1428 34.2857 21.1428C33.9657 21.1428 33.7143 21.3943 33.7143 21.7143C33.7143 22.0343 33.9657 22.2857 34.2857 22.2857ZM26.2857 18.2857C26.9143 18.2857 27.4285 17.7714 27.4285 17.1428C27.4285 16.5143 26.9143 16 26.2857 16C25.6571 16 25.1428 16.5143 25.1428 17.1428C25.1428 17.7714 25.6571 18.2857 26.2857 18.2857ZM26.2857 14.2857C26.6057 14.2857 26.8571 14.0343 26.8571 13.7143C26.8571 13.3943 26.6057 13.1428 26.2857 13.1428C25.9657 13.1428 25.7143 13.3943 25.7143 13.7143C25.7143 14.0343 25.9657 14.2857 26.2857 14.2857ZM13.7143 25.7142C13.3943 25.7142 13.1428 25.9657 13.1428 26.2857C13.1428 26.6057 13.3943 26.8571 13.7143 26.8571C14.0343 26.8571 14.2857 26.6057 14.2857 26.2857C14.2857 25.9657 14.0343 25.7142 13.7143 25.7142ZM21.7142 33.7143C21.3942 33.7143 21.1428 33.9657 21.1428 34.2857C21.1428 34.6057 21.3942 34.8571 21.7142 34.8571C22.0342 34.8571 22.2857 34.6057 22.2857 34.2857C22.2857 33.9657 22.0342 33.7143 21.7142 33.7143ZM21.7142 14.2857C22.0342 14.2857 22.2857 14.0343 22.2857 13.7143C22.2857 13.3943 22.0342 13.1428 21.7142 13.1428C21.3942 13.1428 21.1428 13.3943 21.1428 13.7143C21.1428 14.0343 21.3942 14.2857 21.7142 14.2857ZM21.7143 18.2857C22.3428 18.2857 22.8571 17.7714 22.8571 17.1428C22.8571 16.5143 22.3428 16 21.7143 16C21.0857 16 20.5714 16.5143 20.5714 17.1428C20.5714 17.7714 21.0857 18.2857 21.7143 18.2857ZM21.7143 24.5714C20.7657 24.5714 20 25.3371 20 26.2857C20 27.2343 20.7657 28 21.7143 28C22.6628 28 23.4285 27.2343 23.4285 26.2857C23.4285 25.3371 22.6628 24.5714 21.7143 24.5714ZM30.8571 25.1428C30.2285 25.1428 29.7142 25.6571 29.7142 26.2857C29.7142 26.9143 30.2285 27.4285 30.8571 27.4285C31.4857 27.4285 31.9999 26.9143 31.9999 26.2857C31.9999 25.6571 31.4857 25.1428 30.8571 25.1428ZM30.8571 29.7143C30.2285 29.7143 29.7142 30.2285 29.7142 30.8571C29.7142 31.4857 30.2285 32 30.8571 32C31.4857 32 31.9999 31.4857 31.9999 30.8571C31.9999 30.2285 31.4857 29.7143 30.8571 29.7143ZM30.8571 20.5714C30.2285 20.5714 29.7142 21.0857 29.7142 21.7142C29.7142 22.3428 30.2285 22.8571 30.8571 22.8571C31.4857 22.8571 31.9999 22.3428 31.9999 21.7142C31.9999 21.0857 31.4857 20.5714 30.8571 20.5714ZM30.8571 16C30.2285 16 29.7142 16.5143 29.7142 17.1428C29.7142 17.7714 30.2285 18.2857 30.8571 18.2857C31.4857 18.2857 31.9999 17.7714 31.9999 17.1428C31.9999 16.5143 31.4857 16 30.8571 16ZM34.2857 25.7142C33.9657 25.7142 33.7143 25.9657 33.7143 26.2857C33.7143 26.6057 33.9657 26.8571 34.2857 26.8571C34.6057 26.8571 34.8571 26.6057 34.8571 26.2857C34.8571 25.9657 34.6057 25.7142 34.2857 25.7142ZM26.2857 29.7143C25.6571 29.7143 25.1428 30.2285 25.1428 30.8571C25.1428 31.4857 25.6571 32 26.2857 32C26.9143 32 27.4285 31.4857 27.4285 30.8571C27.4285 30.2285 26.9143 29.7143 26.2857 29.7143ZM26.2857 33.7143C25.9657 33.7143 25.7143 33.9657 25.7143 34.2857C25.7143 34.6057 25.9657 34.8571 26.2857 34.8571C26.6057 34.8571 26.8571 34.6057 26.8571 34.2857C26.8571 33.9657 26.6057 33.7143 26.2857 33.7143ZM21.7143 20C20.7657 20 20 20.7657 20 21.7143C20 22.6628 20.7657 23.4285 21.7143 23.4285C22.6628 23.4285 23.4285 22.6628 23.4285 21.7143C23.4285 20.7657 22.6628 20 21.7143 20ZM21.7143 29.7143C21.0857 29.7143 20.5714 30.2285 20.5714 30.8571C20.5714 31.4857 21.0857 32 21.7143 32C22.3428 32 22.8571 31.4857 22.8571 30.8571C22.8571 30.2285 22.3428 29.7143 21.7143 29.7143ZM26.2857 24.5714C25.3371 24.5714 24.5714 25.3371 24.5714 26.2857C24.5714 27.2343 25.3371 28 26.2857 28C27.2342 28 27.9999 27.2343 27.9999 26.2857C27.9999 25.3371 27.2342 24.5714 26.2857 24.5714ZM26.2857 20C25.3371 20 24.5714 20.7657 24.5714 21.7143C24.5714 22.6628 25.3371 23.4285 26.2857 23.4285C27.2342 23.4285 27.9999 22.6628 27.9999 21.7143C27.9999 20.7657 27.2342 20 26.2857 20Z" fill="#969696"/>
</svg>
