<svg width="64" height="64" viewBox="0 0 64 64" fill="none" xmlns="http://www.w3.org/2000/svg">
<path d="M32 2C32 0.895432 32.8963 -0.0065155 33.9987 0.0624771C37.5174 0.282681 40.9802 1.08318 44.2459 2.43586C48.1283 4.04401 51.6559 6.40111 54.6274 9.37258C57.5989 12.3441 59.956 15.8717 61.5641 19.7541C63.1723 23.6365 64 27.7977 64 32C64 36.2023 63.1723 40.3635 61.5641 44.2459C59.956 48.1283 57.5989 51.6559 54.6274 54.6274C51.6559 57.5989 48.1283 59.956 44.2459 61.5641C40.9802 62.9168 37.5174 63.7173 33.9987 63.9375C32.8963 64.0065 32 63.1046 32 62C32 60.8954 32.8966 60.0074 33.9983 59.9286C36.9913 59.7145 39.9349 59.0202 42.7151 57.8686C46.1123 56.4615 49.1989 54.399 51.799 51.799C54.399 49.1989 56.4615 46.1123 57.8686 42.7151C59.2758 39.318 60 35.677 60 32C60 28.323 59.2758 24.682 57.8686 21.2849C56.4615 17.8877 54.399 14.801 51.799 12.201C49.1989 9.60097 46.1123 7.53851 42.7151 6.13137C39.9349 4.97976 36.9913 4.28555 33.9983 4.0714C32.8966 3.99257 32 3.10457 32 2Z" fill="#0085FF"/>
<rect x="2" y="2" width="60" height="60" rx="30" stroke="white" stroke-width="4"/>
<rect x="2" y="2" width="60" height="60" rx="30" stroke="#0085FF" stroke-opacity="0.1" stroke-width="4"/>

</svg>
