<svg  width="64" height="64" viewBox="0 0 64 64" fill="none" xmlns="http://www.w3.org/2000/svg">
<path d="M32 2C32 0.895432 32.8964 -0.0065155 33.9988 0.0624733C39.625 0.414536 45.0714 2.24797 49.7782 5.39297C55.0406 8.90918 59.1421 13.9069 61.5641 19.7541C63.9861 25.6014 64.6199 32.0355 63.3851 38.2429C62.1504 44.4503 59.1027 50.1521 54.6274 54.6274C50.1521 59.1027 44.4503 62.1504 38.2429 63.3851C32.0355 64.6199 25.6014 63.9862 19.7541 61.5641C13.9069 59.1421 8.90918 55.0406 5.39297 49.7783C2.24798 45.0714 0.414537 39.625 0.0624719 33.9988C-0.00651264 32.8964 0.895431 32 2 32C3.10457 32 3.99256 32.8966 4.07139 33.9984C4.41726 38.8327 6.01348 43.5071 8.71885 47.556C11.7955 52.1605 16.1685 55.7494 21.2849 57.8686C26.4012 59.9879 32.0311 60.5424 37.4625 59.462C42.894 58.3816 47.8831 55.7149 51.799 51.799C55.7149 47.8831 58.3816 42.894 59.462 37.4625C60.5424 32.0311 59.9879 26.4012 57.8686 21.2849C55.7494 16.1685 52.1605 11.7955 47.556 8.71885C43.5071 6.01348 38.8327 4.41726 33.9984 4.07139C32.8966 3.99257 32 3.10457 32 2Z" fill="#0085FF"/>
<rect x="2" y="2" width="60" height="60" rx="30" stroke="white" stroke-width="4"/>
<rect x="2" y="2" width="60" height="60" rx="30" stroke="#0085FF" stroke-opacity="0.1" stroke-width="4"/>

<svg width="64" height="64" viewBox="0 0 64 64" fill="none" xmlns="http://www.w3.org/2000/svg">
<path d="M32 2C32 0.895432 32.8964 -0.0065155 33.9988 0.0624733C39.625 0.414536 45.0714 2.24797 49.7782 5.39297C55.0406 8.90918 59.1421 13.9069 61.5641 19.7541C63.9861 25.6014 64.6199 32.0355 63.3851 38.2429C62.1504 44.4503 59.1027 50.1521 54.6274 54.6274C50.1521 59.1027 44.4503 62.1504 38.2429 63.3851C32.0355 64.6199 25.6014 63.9862 19.7541 61.5641C13.9069 59.1421 8.90918 55.0406 5.39297 49.7783C2.24798 45.0714 0.414537 39.625 0.0624719 33.9988C-0.00651264 32.8964 0.895431 32 2 32C3.10457 32 3.99256 32.8966 4.07139 33.9984C4.41726 38.8327 6.01348 43.5071 8.71885 47.556C11.7955 52.1605 16.1685 55.7494 21.2849 57.8686C26.4012 59.9879 32.0311 60.5424 37.4625 59.462C42.894 58.3816 47.8831 55.7149 51.799 51.799C55.7149 47.8831 58.3816 42.894 59.462 37.4625C60.5424 32.0311 59.9879 26.4012 57.8686 21.2849C55.7494 16.1685 52.1605 11.7955 47.556 8.71885C43.5071 6.01348 38.8327 4.41726 33.9984 4.07139C32.8966 3.99257 32 3.10457 32 2Z" fill="#0085FF"/>
<svg width="31" height="13" viewBox="0 0 31 13" fill="none" xmlns="http://www.w3.org/2000/svg">
<path d="M0.870739 12H2.70597L7.76847 1.92045V0.363636H0.0752841V1.86932H5.95028V1.95455L0.870739 12ZM13.429 12.1591C15.7699 12.1591 17.4403 10.5057 17.4347 8.23864C17.4403 5.98864 15.8722 4.35227 13.7528 4.35227C12.8892 4.35227 12.0881 4.68182 11.6335 5.125H11.5653L11.9347 1.86932H16.8722V0.363636H10.4744L9.82102 6.22727L11.429 6.46591C11.8665 6.07386 12.6506 5.80682 13.3551 5.80682C14.7358 5.81818 15.7358 6.85227 15.7358 8.27273C15.7358 9.67045 14.7642 10.6818 13.429 10.6818C12.304 10.6818 11.4119 9.96591 11.321 8.96591H9.61648C9.68466 10.8182 11.2926 12.1591 13.429 12.1591ZM25.5838 9.81818C25.5895 11.1307 26.4134 12.2386 27.9531 12.2386C29.4759 12.2386 30.3111 11.1307 30.3111 9.81818V9.20455C30.3111 7.88636 29.4986 6.78409 27.9531 6.78409C26.4361 6.78409 25.5895 7.89205 25.5838 9.20455V9.81818ZM19.7315 3.15909C19.7315 4.47159 20.5611 5.57955 22.1009 5.57955C23.6179 5.57955 24.4588 4.47727 24.4531 3.15909V2.54545C24.4588 1.22727 23.6406 0.125 22.1009 0.125C20.5895 0.125 19.7315 1.22727 19.7315 2.54545V3.15909ZM20.2088 12H21.5668L29.5668 0.363636H28.2088L20.2088 12ZM26.9077 9.20455C26.9134 8.55114 27.1974 7.92045 27.9531 7.92045C28.7372 7.92045 28.9815 8.55114 28.9815 9.20455V9.81818C28.9815 10.4716 28.7145 11.1023 27.9531 11.1023C27.1804 11.1023 26.9134 10.4659 26.9077 9.81818V9.20455ZM21.0611 2.54545C21.0611 1.89773 21.3452 1.26136 22.1009 1.26136C22.8849 1.26136 23.1293 1.89205 23.1293 2.54545V3.15909C23.1293 3.8125 22.8622 4.44318 22.1009 4.44318C21.3281 4.44318 21.0611 3.8125 21.0611 3.15909V2.54545Z" fill="#0085FF"/>
</svg>
</svg>
</svg>

