<svg width="64" height="64" viewBox="0 0 64 64" fill="none" xmlns="http://www.w3.org/2000/svg">
<path d="M32 2C32 0.895432 32.8964 -0.0065155 33.9988 0.0624733C39.625 0.414536 45.0714 2.24797 49.7782 5.39297C55.0406 8.90918 59.1421 13.9069 61.5641 19.7541C63.9861 25.6014 64.6199 32.0355 63.3851 38.2429C62.1504 44.4503 59.1027 50.1521 54.6274 54.6274C50.1521 59.1027 44.4503 62.1504 38.2429 63.3851C32.0355 64.6199 25.6014 63.9862 19.7541 61.5641C13.9069 59.1421 8.90918 55.0406 5.39297 49.7783C2.24798 45.0714 0.414537 39.625 0.0624719 33.9988C-0.00651264 32.8964 0.895431 32 2 32C3.10457 32 3.99256 32.8966 4.07139 33.9984C4.41726 38.8327 6.01348 43.5071 8.71885 47.556C11.7955 52.1605 16.1685 55.7494 21.2849 57.8686C26.4012 59.9879 32.0311 60.5424 37.4625 59.462C42.894 58.3816 47.8831 55.7149 51.799 51.799C55.7149 47.8831 58.3816 42.894 59.462 37.4625C60.5424 32.0311 59.9879 26.4012 57.8686 21.2849C55.7494 16.1685 52.1605 11.7955 47.556 8.71885C43.5071 6.01348 38.8327 4.41726 33.9984 4.07139C32.8966 3.99257 32 3.10457 32 2Z" fill="#0085FF"/>
<rect x="2" y="2" width="60" height="60" rx="30" stroke="white" stroke-width="4"/>
<rect x="2" y="2" width="60" height="60" rx="30" stroke="#0085FF" stroke-opacity="0.1" stroke-width="4"/>
</svg>
